<svg width="52" height="50" viewBox="0 0 52 50" fill="none" xmlns="http://www.w3.org/2000/svg">
<path d="M25.8017 0.206905C11.6872 0.206905 0.167572 11.2341 0.167572 24.7442C0.167572 38.2548 11.6878 49.2815 25.8017 49.2815C39.9164 49.2815 51.4358 38.2542 51.4358 24.7442C51.4358 11.2334 39.9156 0.206905 25.8017 0.206905ZM25.8017 46.406C13.3234 46.406 3.17157 36.6886 3.17157 24.7442C3.17157 12.7998 13.3234 3.08237 25.8017 3.08237C38.28 3.08237 48.4318 12.7998 48.4318 24.7442C48.4318 36.6886 38.28 46.406 25.8017 46.406ZM33.3117 16.1178C33.3117 12.154 29.9427 8.92915 25.8017 8.92915C21.6607 8.92915 18.2917 12.154 18.2917 16.1178C18.2917 20.0816 21.6607 23.3065 25.8017 23.3065C29.9427 23.3065 33.3117 20.0816 33.3117 16.1178ZM25.8017 20.431C23.3171 20.431 21.2957 18.4961 21.2957 16.1178C21.2957 13.7395 23.3171 11.8046 25.8017 11.8046C28.2863 11.8046 30.3077 13.7395 30.3077 16.1178C30.3077 18.4961 28.2863 20.431 25.8017 20.431ZM25.8017 23.3065C18.3479 23.3065 12.2837 29.1112 12.2837 36.2461V37.5935C12.2837 38.0022 12.4653 38.3915 12.7834 38.6642C16.442 41.8023 21.0654 43.5306 25.8017 43.5306C30.5381 43.5306 35.1615 41.8023 38.82 38.6642C39.1381 38.3915 39.3197 38.0021 39.3197 37.5935V36.2461C39.3197 29.1112 33.2555 23.3065 25.8017 23.3065ZM36.3157 36.9355C33.2945 39.3386 29.5856 40.6551 25.8017 40.6551C22.0178 40.6551 18.3089 39.3386 15.2877 36.9355V36.2461C15.2877 30.6967 20.0043 26.1819 25.8017 26.1819C31.5991 26.1819 36.3157 30.6967 36.3157 36.2461V36.9355Z" fill="url(#paint0_linear_16_9)"/>
<defs>
<linearGradient id="paint0_linear_16_9" x1="25.8017" y1="49.2815" x2="25.8017" y2="0.206905" gradientUnits="userSpaceOnUse">
<stop stop-color="#5558FF"/>
<stop offset="1" stop-color="#00C0FF"/>
</linearGradient>
</defs>
</svg>
